<svg xmlns="http://www.w3.org/2000/svg" width="375" viewBox="0 0 375 375" height="375" version="1.0"><defs><clipPath id="a"><path d="M 124.335938 71.234375 L 235 71.234375 L 235 173 L 124.335938 173 Z M 124.335938 71.234375"/></clipPath><clipPath id="b"><path d="M 140 120 L 250.335938 120 L 250.335938 221.234375 L 140 221.234375 Z M 140 120"/></clipPath></defs><g clip-path="url(#a)"><path fill="#704332" d="M 159.148438 131.816406 C 162.726562 126.238281 183.058594 109.824219 197.304688 114.699219 C 192.546875 124.859375 161.277344 124.617188 162.144531 147.703125 C 166.132812 144.257812 180.597656 138.472656 186.519531 135.890625 L 194.171875 132.492188 C 203.710938 129.792969 218 120.609375 224.203125 112.261719 C 233.183594 100.175781 235.394531 86.1875 234.171875 71.234375 C 230.972656 75.242188 224.132812 77.476562 215.574219 79.863281 C 185.183594 88.339844 183.515625 90.171875 161.21875 108.277344 C 141.546875 124.25 127.898438 145.726562 124.339844 172.1875 C 135.269531 171.40625 141.859375 149.984375 159.148438 131.816406 Z M 159.148438 131.816406"/></g><g clip-path="url(#b)"><path fill="#E4A87D" d="M 215.523438 160.652344 C 211.949219 166.234375 191.613281 182.648438 177.367188 177.773438 C 182.125 167.609375 213.394531 167.855469 212.527344 144.765625 C 208.539062 148.214844 194.074219 153.996094 188.152344 156.582031 L 180.503906 159.980469 C 170.964844 162.679688 156.671875 171.863281 150.46875 180.210938 C 141.488281 192.296875 139.277344 206.28125 140.5 221.234375 C 143.699219 217.226562 150.539062 214.996094 159.097656 212.609375 C 189.488281 204.132812 191.15625 202.296875 213.453125 184.191406 C 233.125 168.21875 246.773438 146.746094 250.332031 120.285156 C 239.402344 121.0625 232.8125 142.484375 215.523438 160.65625 Z M 215.523438 160.652344"/></g></svg>