<svg width="162" height="175" viewBox="0 0 162 175" fill="none" xmlns="http://www.w3.org/2000/svg">
<path d="M56.1484 78.8164C59.7266 73.2383 80.0586 56.8242 94.3047 61.6992C89.5469 71.8594 58.2773 71.6172 59.1445 94.7031C63.1328 91.2578 77.5977 85.4727 83.5195 82.8906L91.1719 79.4922C100.711 76.793 115 67.6094 121.203 59.2617C130.184 47.1758 132.395 33.1875 131.172 18.2344C127.973 22.2422 121.133 24.4766 112.574 26.8633C82.1836 35.3398 80.5156 37.1719 58.2188 55.2773C38.5469 71.25 24.8984 92.7266 21.3398 119.188C32.2695 118.406 38.8594 96.9844 56.1484 78.8164Z" fill="#704332"/>
<path d="M112.523 107.652C108.949 113.234 88.6133 129.648 74.3672 124.773C79.125 114.609 110.395 114.855 109.527 91.7656C105.539 95.2148 91.0742 100.996 85.1523 103.582L77.5039 106.98C67.9648 109.68 53.6719 118.863 47.4687 127.211C38.4883 139.297 36.2773 153.281 37.5 168.234C40.6992 164.227 47.539 161.996 56.0976 159.609C86.4883 151.133 88.1562 149.297 110.453 131.191C130.125 115.219 143.773 93.7461 147.332 67.2852C136.402 68.0625 129.812 89.4844 112.523 107.656V107.652Z" fill="#E4A87D"/>
</svg>
