<svg width="115" height="114" viewBox="0 0 115 114" fill="none" xmlns="http://www.w3.org/2000/svg">
<path fill-rule="evenodd" clip-rule="evenodd" d="M57.5 98.9048C81.317 98.9048 100.625 79.9269 100.625 56.517C100.625 33.1072 81.317 14.1292 57.5 14.1292C33.6831 14.1292 14.375 33.1072 14.375 56.517C14.375 79.9269 33.6831 98.9048 57.5 98.9048ZM57.5 103.615C83.9644 103.615 105.417 82.529 105.417 56.517C105.417 30.505 83.9644 9.41943 57.5 9.41943C31.0357 9.41943 9.58337 30.505 9.58337 56.517C9.58337 82.529 31.0357 103.615 57.5 103.615Z" fill="white"/>
<path d="M28.75 83.9042C28.75 81.4716 30.5996 79.4158 33.0625 79.1474C51.5464 77.1363 63.5375 77.3176 81.9806 79.1921C82.9016 79.2872 83.7745 79.6438 84.4927 80.2184C85.2108 80.7931 85.7432 81.5609 86.0247 82.428C86.3063 83.2951 86.3248 84.2241 86.078 85.1014C85.8313 85.9787 85.3299 86.7664 84.6352 87.3683C62.8691 106.017 50.4299 105.76 30.2833 87.3871C29.301 86.4922 28.75 85.2206 28.75 83.9066V83.9042Z" fill="white"/>
<path fill-rule="evenodd" clip-rule="evenodd" d="M81.7339 81.533C63.437 79.6726 51.6183 79.4983 33.3237 81.4882C32.7215 81.5572 32.1664 81.8421 31.7645 82.2883C31.3627 82.7345 31.1424 83.3108 31.1459 83.9067C31.1459 84.5802 31.431 85.2183 31.9126 85.6611C41.8984 94.765 49.4645 98.879 56.8604 98.9049C64.2827 98.9308 72.256 94.8498 83.0612 85.5951C83.4045 85.2948 83.6516 84.9029 83.7725 84.4672C83.8935 84.0314 83.883 83.5705 83.7424 83.1404C83.6018 82.7104 83.3372 82.3298 82.9806 82.0448C82.624 81.7599 82.1909 81.5829 81.7339 81.5353V81.533ZM32.7991 76.8067C51.477 74.7744 63.643 74.9581 82.2299 76.8491C83.6154 76.9912 84.9287 77.5274 86.009 78.3918C87.0893 79.2563 87.8897 80.4116 88.3122 81.7164C88.7348 83.0211 88.7611 84.4186 88.3881 85.7378C88.015 87.057 87.2587 88.2407 86.2118 89.1439C75.2508 98.5352 66.1227 103.65 56.846 103.615C47.543 103.582 38.8174 98.3798 28.6567 89.1133C27.9292 88.4473 27.3492 87.6409 26.9531 86.7447C26.5569 85.8484 26.3531 84.8815 26.3543 83.9043C26.3508 82.1486 27.0064 80.4533 28.1956 79.1432C29.3848 77.8331 31.0239 77.0003 32.7991 76.8044V76.8067Z" fill="white"/>
<path d="M76.6667 47.0976C76.6667 52.094 74.6474 56.8858 71.0529 60.4188C67.4585 63.9518 62.5834 65.9366 57.5 65.9366C52.4167 65.9366 47.5416 63.9518 43.9472 60.4188C40.3527 56.8858 38.3334 52.094 38.3334 47.0976C38.3334 42.1012 40.3527 37.3094 43.9472 33.7764C47.5416 30.2434 52.4167 28.2585 57.5 28.2585C62.5834 28.2585 67.4585 30.2434 71.0529 33.7764C74.6474 37.3094 76.6667 42.1012 76.6667 47.0976Z" fill="white"/>
<path fill-rule="evenodd" clip-rule="evenodd" d="M57.5 61.2268C61.3125 61.2268 64.9689 59.7382 67.6647 57.0885C70.3605 54.4387 71.875 50.8449 71.875 47.0976C71.875 43.3503 70.3605 39.7564 67.6647 37.1067C64.9689 34.4569 61.3125 32.9683 57.5 32.9683C53.6876 32.9683 50.0312 34.4569 47.3354 37.1067C44.6395 39.7564 43.125 43.3503 43.125 47.0976C43.125 50.8449 44.6395 54.4387 47.3354 57.0885C50.0312 59.7382 53.6876 61.2268 57.5 61.2268ZM57.5 65.9366C62.5834 65.9366 67.4585 63.9518 71.0529 60.4188C74.6474 56.8858 76.6667 52.094 76.6667 47.0976C76.6667 42.1012 74.6474 37.3094 71.0529 33.7764C67.4585 30.2434 62.5834 28.2585 57.5 28.2585C52.4167 28.2585 47.5416 30.2434 43.9472 33.7764C40.3527 37.3094 38.3334 42.1012 38.3334 47.0976C38.3334 52.094 40.3527 56.8858 43.9472 60.4188C47.5416 63.9518 52.4167 65.9366 57.5 65.9366Z" fill="white"/>
</svg>
